<svg width="60" height="40" viewBox="0 0 60 40" fill="none" xmlns="http://www.w3.org/2000/svg">
<rect width="60" height="40" rx="2" fill="white"/>
<path d="M45.7725 27.4359H47.6565V29.2839H45.7725V27.4359Z" fill="black"/>
<path d="M37.4814 20.7159H41.1534C43.5294 20.7159 45.0654 22.2519 45.0654 24.9519C45.0654 27.6519 43.6014 29.2839 41.2014 29.2839H37.4814V20.7159ZM39.3654 27.6999H41.0334C42.2094 27.6999 43.1814 26.9679 43.1814 25.1199C43.1814 23.0799 42.2814 22.2999 40.7094 22.2999H39.3654V27.6999Z" fill="black"/>
<path d="M29.3945 20.7159H34.0145C35.5265 20.7159 36.5225 21.7599 36.5225 23.0799C36.5225 24.1599 36.0665 24.8679 35.1665 25.2279V25.2519C36.3665 25.5879 36.4025 26.9079 36.4385 27.7119C36.4745 28.5279 36.5585 28.9839 36.7745 29.2839H34.8905C34.7465 28.9239 34.6985 28.4079 34.6505 27.7959C34.5545 26.5959 34.3625 25.9359 33.1745 25.9359H31.2785V29.2839H29.3945V20.7159ZM31.2785 24.5919H33.3545C34.1465 24.5919 34.6385 24.2679 34.6385 23.3679C34.6385 22.5159 34.1705 22.1799 33.3425 22.1799H31.2785V24.5919Z" fill="black"/>
<path d="M23.5518 20.7159H25.4838L28.6878 29.2839H26.7318L26.0838 27.3759H22.8798L22.2078 29.2839H20.2998L23.5518 20.7159ZM24.5118 22.8279H24.4878L23.3718 25.9719H25.5918L24.5118 22.8279Z" fill="black"/>
<path d="M16.5558 20.512C18.4758 20.512 20.0358 21.664 20.2518 23.596H18.4278C18.2958 22.756 17.4918 22.096 16.5558 22.096C15.0198 22.096 14.2278 23.308 14.2278 25.036C14.2278 26.644 14.9838 27.904 16.5558 27.904C17.6358 27.904 18.3438 27.208 18.4998 25.984H20.3238C20.1318 28.144 18.6558 29.488 16.5558 29.488C13.9398 29.488 12.3438 27.544 12.3438 25.036C12.3438 22.504 13.9038 20.512 16.5558 20.512Z" fill="black"/>
<path d="M31.7227 10.7159H38.7427V12.2999H36.1747V19.2839H34.2907V12.2999H31.7227V10.7159Z" fill="black"/>
<path d="M24.8896 10.7159H30.9136V12.2999H26.7736V14.2799H30.3616V15.7439H26.7736V19.2839H24.8896V10.7159Z" fill="black"/>
<path d="M21.6523 10.7159H23.5363V19.2839H21.6523V10.7159Z" fill="black"/>
<path d="M16.5558 10.512C18.3918 10.512 19.9998 11.664 20.1678 13.536H18.3678C18.1398 12.576 17.4678 12.096 16.5558 12.096C14.9957 12.096 14.2278 13.356 14.2278 15.036C14.2278 16.536 14.9118 17.904 16.5558 17.904C17.7558 17.904 18.4758 17.292 18.5958 16.056H16.6998V14.652H20.2998V19.284H19.0998L18.9078 18.312C18.2838 19.116 17.4678 19.488 16.5558 19.488C13.9398 19.488 12.3438 17.532 12.3438 15.036C12.3438 12.492 13.9038 10.512 16.5558 10.512Z" fill="black"/>
</svg>
