<svg width="60" height="40" viewBox="0 0 60 40" fill="none" xmlns="http://www.w3.org/2000/svg">
<rect width="60" height="40" rx="2" fill="white"/>
<path d="M35.6881 9.7823H24.3184V30.2117H35.6881V9.7823Z" fill="#FF5F00"/>
<path d="M25.0408 19.997C25.0408 16.0266 26.8816 12.2367 29.9858 9.78227C24.355 5.34266 16.1616 6.31721 11.7219 11.984C7.3184 17.6148 8.29295 25.7721 13.9598 30.2117C18.6882 33.9294 25.2935 33.9294 30.0219 30.2117C26.8816 27.7573 25.0408 23.9674 25.0408 19.997Z" fill="#EB001B"/>
<path d="M51.0305 19.997C51.0305 27.1798 45.2192 32.991 38.0364 32.991C35.1128 32.991 32.2974 32.0164 30.0234 30.2117C35.6542 25.7721 36.6287 17.6148 32.1891 11.9479C31.5394 11.1539 30.8175 10.3959 30.0234 9.78227C35.6542 5.34266 43.8476 6.31721 48.2512 11.984C50.0559 14.258 51.0305 17.0733 51.0305 19.997Z" fill="#F79E1B"/>
</svg>
