<svg width="60" height="40" viewBox="0 0 60 40" fill="none" xmlns="http://www.w3.org/2000/svg">
<rect width="60" height="40" rx="2" fill="white"/>
<path d="M37.0683 13.7955H42.3865C45.8276 13.7955 48.0522 16.0201 48.0522 19.9305C48.0522 23.8409 45.9319 26.2045 42.456 26.2045H37.0683V13.7955ZM39.7969 23.9104H42.2127C43.9159 23.9104 45.3236 22.8503 45.3236 20.1738C45.3236 17.2193 44.0202 16.0896 41.7434 16.0896H39.7969V23.9104Z" fill="black"/>
<path d="M29.1028 13.5C32.8568 13.5 35.2031 16.2981 35.2031 20.0521C35.2031 23.6671 32.8916 26.5 29.1028 26.5C25.3141 26.5 23.0026 23.6671 23.0026 20.0521C23.0026 16.3676 25.2967 13.5 29.1028 13.5ZM25.7312 20.0521C25.7312 22.3636 26.8261 24.2059 29.1028 24.2059C31.4143 24.2059 32.4745 22.3115 32.4745 20.0521C32.4745 17.6711 31.4143 15.7941 29.0854 15.7941C26.8087 15.7941 25.7312 17.6537 25.7312 20.0521Z" fill="black"/>
<path d="M11.9492 13.7955H17.5629C20.4653 13.7955 21.8383 15.5682 21.8383 17.7754C21.8383 20.0174 20.4305 21.7553 17.5802 21.7553H14.6778V26.2045H11.9492V13.7955ZM14.6778 19.635H16.8503C18.4145 19.635 19.1965 19.0963 19.1965 17.7754C19.1965 16.5067 18.4666 15.9158 16.8677 15.9158H14.6778V19.635Z" fill="black"/>
</svg>
