<svg width="60" height="40" viewBox="0 0 60 40" fill="none" xmlns="http://www.w3.org/2000/svg">
<rect width="60" height="40" rx="2" fill="white"/>
<path fill-rule="evenodd" clip-rule="evenodd" d="M29.2103 26.6324C29.429 25.6395 29.6239 24.7546 29.8592 23.7598C30.3763 23.9809 30.816 24.1646 31.3087 24.3268C32.46 24.7059 33.819 24.9048 35.0075 24.5914C35.7885 24.3855 36.8205 23.62 36.2575 22.723C35.8435 22.0634 35.0238 21.6802 34.2948 21.3393C34.1438 21.2688 33.9967 21.2 33.8581 21.131C32.5922 20.5015 31.2654 19.5053 30.9035 18.0824C30.349 15.9018 31.6959 13.8561 33.6082 12.8651C35.3433 11.9657 37.5052 11.8431 39.4063 12.1541C40.0953 12.2668 40.848 12.4511 41.4884 12.7315C41.2528 13.8137 41.0123 14.8862 40.7559 16.0089C40.0211 15.7453 39.2833 15.4839 38.5065 15.3736C37.6168 15.2472 36.5012 15.1533 35.7075 15.6686C35.2115 15.9904 34.8497 16.5539 35.2395 17.095C35.6388 17.6498 36.3128 17.9776 36.9454 18.2852C37.1215 18.3708 37.2943 18.4549 37.457 18.5419C39.0506 19.3932 40.5128 20.4686 40.6976 22.3775C40.7464 22.8833 40.6801 23.4156 40.5619 23.9079C40.463 24.3191 40.3198 24.7254 40.1054 25.0927C38.4668 27.8988 34.687 28.2661 31.7584 27.8638C30.8846 27.7438 29.9962 27.4445 29.1153 27.0644L29.2103 26.6324ZM5.01691 12.3062L4.9668 12.7999C6.00166 13.0109 7.00887 13.3043 8.01607 13.6986L8.02355 13.7015C8.50519 13.8902 9.04736 14.1025 9.41021 14.4804C9.71514 14.7978 9.82546 15.2335 9.92959 15.646L9.93415 15.6633C10.9544 19.6932 13.112 27.7586 13.112 27.7586H17.4229L23.9868 12.3062L19.6664 12.3062L15.4638 22.6243L14.0642 15.1202C14.0098 14.9164 13.9698 14.6983 13.9288 14.4771C13.7934 13.743 13.6512 12.9738 12.9645 12.5705C12.5617 12.303 11.3215 12.3049 10.5547 12.3061L10.4151 12.3062H5.01691ZM22.2744 27.7586H26.4106L29.7378 12.3062L25.6661 12.3062C25.6661 12.3195 22.2744 27.7586 22.2744 27.7586ZM40.4041 27.7586H44.7557L45.5553 25.4383H50.6701L51.2044 27.7586H55.0331L51.6412 12.3062H48.7045C48.0448 12.3062 47.4522 12.3657 46.9498 12.8611C46.5847 13.2215 46.3861 13.6801 46.1883 14.138L46.1476 14.2316L40.4041 27.7586ZM48.8236 16.5791L46.7552 22.2293H50.0043L48.8236 16.5791Z" fill="#1434CB"/>
</svg>
